# xmcd CD database file
#
# Track frame offsets:
#	150
#	12308
#	25134
#	39319
#	54859
#	66939
#	85776
#	99655
#	110895
#	128748
#	144685
#	159678
#	172894
#	183770
#
# Disc length: 2738 seconds
#
# Revision: 0
# Processed by: cddbd v1.5.1PL2 Copyright (c) Steve Scherf et al.
# Submitted via: CDex 1.50
#
DISCID=b30ab00e
DTITLE=David Croser - Man On The Land
DYEAR=2005
DGENRE=Country
TTITLE0=Thunder And Lightning
TTITLE1=The Farmer's Daughter
TTITLE2=Man On The Land
TTITLE3=Rope Around My Heart
TTITLE4=Teach Me, Show Me, I Can Do My Part
TTITLE5=Tractor Pioneers
TTITLE6=Rivers Of Australia
TTITLE7=Big Rains Are Coming
TTITLE8=Country Music
TTITLE9=You've Gotta Go West Young Fella
TTITLE10=Camooweal
TTITLE11=My Heart Isn't Broken
TTITLE12=Hands Of Fame
TTITLE13=Song For Cynthia
EXTD=YEAR: 2005
EXTT0=
EXTT1=
EXTT2=
EXTT3=
EXTT4=
EXTT5=
EXTT6=
EXTT7=
EXTT8=
EXTT9=
EXTT10=
EXTT11=
EXTT12=
EXTT13=
PLAYORDER=
